<?xml version="1.0" standalone="no"?>
<!DOCTYPE svg PUBLIC "-//W3C//DTD SVG 20010904//EN"
 "http://www.w3.org/TR/2001/REC-SVG-20010904/DTD/svg10.dtd">
<svg version="1.0" xmlns="http://www.w3.org/2000/svg"
 width="1500.000000pt" height="1500.000000pt" viewBox="0 0 1500.000000 1500.000000"
 preserveAspectRatio="xMidYMid meet">
<metadata>
Created by potrace 1.14, written by Peter Selinger 2001-2017
</metadata>
<g transform="translate(0.000000,1500.000000) scale(0.100000,-0.100000)"
fill="#000000" stroke="none">
<path d="M7159 12906 c-2 -2 -47 -7 -99 -11 -52 -3 -106 -8 -120 -9 -14 -2
-56 -7 -95 -10 -38 -4 -92 -11 -120 -16 -27 -5 -66 -12 -85 -14 -797 -120
-1627 -465 -2310 -960 -119 -86 -316 -241 -351 -275 -9 -9 -45 -41 -80 -70
-35 -30 -144 -135 -241 -233 -550 -552 -959 -1190 -1233 -1923 -83 -223 -196
-609 -220 -755 -3 -19 -12 -64 -20 -100 -19 -85 -33 -172 -41 -240 -3 -30 -7
-57 -9 -60 -2 -3 -7 -37 -10 -75 -4 -38 -8 -76 -10 -85 -20 -104 -29 -861 -12
-1025 5 -44 10 -93 12 -110 3 -34 15 -137 20 -175 4 -28 14 -92 21 -130 2 -14
9 -53 14 -87 22 -136 64 -316 125 -538 25 -93 119 -370 165 -486 93 -234 232
-521 363 -744 71 -121 274 -432 297 -455 3 -3 25 -32 49 -65 58 -78 196 -249
242 -300 329 -365 509 -532 849 -789 270 -204 478 -333 805 -501 241 -124 558
-255 785 -324 58 -18 116 -36 130 -41 76 -26 477 -118 585 -134 22 -4 65 -11
95 -16 30 -5 73 -11 95 -14 116 -14 152 -19 167 -22 147 -27 940 -27 1148 1
14 1 50 6 80 9 81 10 177 23 220 31 14 3 41 7 60 10 19 3 46 8 60 10 14 3 36
8 50 10 14 3 41 8 60 11 89 14 443 111 615 168 310 103 568 217 915 403 296
159 693 444 1000 718 56 50 342 336 390 390 108 122 274 324 335 410 11 15 29
39 41 54 11 14 65 94 119 176 54 83 106 162 116 177 11 15 19 30 19 33 0 3 11
22 23 43 71 112 287 539 303 597 2 6 26 66 54 135 93 226 237 692 264 855 3
17 14 75 25 130 20 104 49 287 57 365 2 25 6 56 8 70 29 154 29 967 1 1160 -2
14 -7 50 -10 80 -3 30 -8 62 -10 70 -2 8 -7 40 -10 70 -3 30 -10 75 -15 100
-5 25 -16 83 -25 130 -8 47 -17 95 -20 108 -2 13 -6 31 -9 40 -3 9 -8 31 -10
47 -10 57 -88 331 -136 475 -448 1358 -1438 2500 -2720 3140 -96 48 -193 95
-215 104 -22 10 -53 24 -70 31 -256 120 -773 279 -1100 340 -152 29 -206 37
-310 50 -121 15 -155 19 -320 34 -87 8 -738 14 -746 7z m851 -451 c80 -9 154
-19 165 -20 11 -2 43 -6 70 -10 84 -10 394 -74 515 -106 784 -206 1501 -598
2104 -1149 149 -136 322 -318 457 -480 482 -579 815 -1225 1000 -1940 22 -85
44 -175 49 -200 4 -25 10 -54 13 -65 2 -11 7 -36 11 -55 3 -19 8 -44 10 -55
12 -62 34 -215 41 -283 3 -26 7 -60 10 -77 4 -29 13 -161 21 -295 12 -237 -3
-641 -31 -830 -2 -14 -7 -47 -10 -75 -4 -27 -8 -57 -10 -65 -2 -8 -7 -35 -10
-60 -40 -298 -193 -828 -325 -1125 -10 -22 -28 -65 -41 -95 -22 -53 -155 -318
-195 -388 -73 -130 -186 -310 -253 -407 -117 -167 -125 -180 -131 -185 -3 -3
-43 -52 -90 -110 -46 -58 -89 -110 -95 -116 -5 -6 -39 -44 -75 -85 -172 -196
-461 -463 -700 -646 -109 -84 -402 -282 -480 -325 -25 -14 -68 -39 -96 -55
-93 -56 -367 -189 -509 -248 -275 -115 -684 -243 -888 -279 -15 -3 -35 -7 -45
-10 -9 -3 -34 -7 -54 -10 -21 -3 -57 -10 -80 -15 -24 -5 -68 -12 -98 -16 -30
-3 -66 -8 -80 -10 -48 -9 -86 -14 -155 -21 -38 -3 -78 -8 -88 -10 -28 -5 -348
-17 -447 -17 -94 1 -362 12 -413 18 -18 2 -63 6 -102 10 -79 7 -107 10 -167
20 -24 4 -56 9 -73 11 -64 10 -154 26 -246 45 -52 11 -105 21 -116 23 -66 13
-320 85 -443 126 -441 147 -897 377 -1275 642 -114 80 -269 199 -345 264 -405
348 -684 661 -970 1089 -233 348 -428 748 -565 1160 -32 93 -59 176 -61 185
-2 8 -22 87 -44 175 -22 88 -43 176 -46 195 -3 19 -10 54 -15 78 -5 23 -12 59
-15 80 -3 20 -7 44 -9 52 -3 8 -7 35 -10 60 -3 25 -7 55 -9 67 -3 12 -8 53
-11 90 -4 37 -8 79 -10 92 -27 164 -27 835 0 1002 2 13 6 55 10 93 4 38 8 79
10 90 2 12 11 68 20 126 68 442 224 931 433 1360 334 687 809 1271 1442 1774
43 34 236 169 315 220 50 32 106 69 125 81 143 94 463 260 665 345 263 112
704 250 915 286 14 3 32 7 40 9 8 3 33 7 55 10 22 3 63 10 90 15 42 8 117 18
320 45 17 2 80 7 140 11 61 3 111 8 113 9 2 2 144 2 315 0 219 -1 355 -8 457
-20z"/>
<path d="M7381 9848 c-34 -13 -72 -39 -100 -67 -30 -30 -160 -233 -365 -566
-175 -286 -329 -536 -341 -555 -13 -19 -78 -125 -146 -235 -67 -110 -206 -335
-308 -500 -102 -165 -199 -324 -217 -353 -57 -94 -37 -102 -233 92 -97 96
-219 216 -271 266 -52 51 -243 237 -424 414 -181 176 -349 341 -375 366 -68
66 -112 98 -162 116 -92 33 -215 14 -296 -45 -43 -31 -98 -110 -114 -163 -7
-22 -10 -581 -10 -1633 0 -1594 0 -1601 20 -1656 26 -68 89 -137 156 -170 l50
-24 3255 0 3255 0 46 23 c64 32 117 86 148 152 l26 55 3 1595 c2 1060 -1 1611
-8 1643 -30 141 -180 251 -331 241 -107 -6 -136 -26 -371 -256 -389 -379 -889
-868 -1024 -1001 l-100 -97 -124 201 c-69 111 -135 220 -148 242 -13 21 -49
80 -81 131 -65 103 -238 382 -262 424 -26 43 -469 761 -504 817 -18 28 -85
137 -151 244 -65 107 -136 212 -157 232 -85 85 -221 112 -336 67z m609 -1693
c260 -423 483 -786 495 -805 13 -19 93 -149 179 -289 86 -140 168 -268 183
-285 75 -89 223 -130 333 -91 66 23 102 54 403 348 155 151 323 314 372 362
50 48 155 152 235 231 81 79 149 144 152 144 3 0 6 -452 6 -1005 l0 -1005 -21
-1 c-28 -1 -5648 -1 -5664 0 -10 1 -13 209 -13 1006 0 553 2 1005 5 1005 3 0
24 -19 48 -42 1092 -1070 1027 -1009 1104 -1038 115 -43 256 -9 336 80 23 26
177 268 341 536 165 269 319 519 343 556 24 37 43 69 43 73 0 3 16 28 35 55
19 27 35 52 35 55 0 3 42 72 93 154 50 81 175 284 277 449 139 226 188 298
196 289 6 -7 224 -358 484 -782z"/>
</g>
</svg>
